<svg height='100px' width='100px'  fill="#000000" xmlns="http://www.w3.org/2000/svg" xmlns:xlink="http://www.w3.org/1999/xlink" version="1.1" x="0px" y="0px" viewBox="0 0 100 100" style="enable-background:new 0 0 100 100;" xml:space="preserve"><g><path d="M78.8,44.5l-0.3-0.8L43.2,54l0.1-0.2l1.2-0.4l10-34.2l-1-0.3c-0.1,0-0.1,0-0.2,0l0,0.1l-0.7-0.2c-3.2-0.9-6.6-1.3-9.9-1.3   c-20.8,0-37.8,17-37.8,37.8c0,1.2,0.1,2.4,0.2,3.6c-0.1-0.7-0.1-1.4-0.2-2.1c0,0.6,0,1.3,0,1.9c0,20.8,17,37.8,37.8,37.8   s37.8-17,37.8-37.8c0-0.4,0-0.8,0-1.2c0-0.8,0.1-1.6,0.1-2.3C80.4,51.6,79.9,48,78.8,44.5z M71.2,47.7c0.7,2.5,1,5.1,1,7.7   c0,16.4-13.4,29.8-29.8,29.8c-16.4,0-29.8-13.4-29.8-29.8c0-16.4,13.4-29.8,29.8-29.8c2.3,0,4.6,0.3,6.9,0.8l-8.9,30.3L71.2,47.7z    M42.6,19.3c2.9,0,5.8,0.3,8.6,1l-1.3,4.4c-2.4-0.6-4.9-0.9-7.4-0.9C25,23.8,10.9,38,10.9,55.4c0,17.4,14.2,31.6,31.6,31.6   C59.8,86.9,74,72.8,74,55.4c0-2.8-0.4-5.6-1.1-8.2l4.4-1.3c0.8,3.1,1.3,6.2,1.3,9.5c0,19.9-16.2,36-36,36c-19.9,0-36-16.2-36-36   C6.6,35.4,22.7,19.3,42.6,19.3z"></path><circle cx="34.3" cy="38.6" r="4.5"></circle><circle cx="35.9" cy="73.4" r="4.5"></circle><circle cx="61" cy="64.2" r="4.5"></circle><circle cx="73.5" cy="26.7" r="4.5"></circle><path d="M18.3,58.6c-0.9,2.1-0.8,4.5,0.6,6.5c1.4,2,3.7,2.9,5.9,2.7c0.9-2.1,0.8-4.5-0.6-6.5C22.9,59.3,20.6,58.4,18.3,58.6z"></path><path d="M62.8,31.4c-0.9,0.9-1.2,2.2-0.8,3.3c1.1,0.3,2.4,0,3.3-0.9c0.9-0.9,1.2-2.2,0.8-3.3C64.9,30.2,63.7,30.5,62.8,31.4z"></path><path d="M47.4,70c1.2,0.5,2.5,0.3,3.4-0.4c-0.1-1.2-0.9-2.2-2.1-2.7c-1.2-0.5-2.5-0.3-3.4,0.4C45.4,68.5,46.2,69.5,47.4,70z"></path><path d="M48.7,76.5c-1,0-1.7,0.8-1.7,1.7c0,1,0.8,1.7,1.7,1.7c1,0,1.7-0.8,1.7-1.7C50.4,77.3,49.6,76.5,48.7,76.5z M48.7,79.2   c-0.5,0-0.9-0.4-0.9-0.9s0.4-0.9,0.9-0.9c0.5,0,0.9,0.4,0.9,0.9S49.1,79.2,48.7,79.2z"></path><path d="M22.2,45.4c1,0,1.7-0.8,1.7-1.7c0-1-0.8-1.7-1.7-1.7c-1,0-1.7,0.8-1.7,1.7C20.4,44.6,21.2,45.4,22.2,45.4z M22.2,42.8   c0.5,0,0.9,0.4,0.9,0.9c0,0.5-0.4,0.9-0.9,0.9c-0.5,0-0.9-0.4-0.9-0.9C21.3,43.1,21.7,42.8,22.2,42.8z"></path><path d="M31.4,55.4c0,1,0.8,1.7,1.7,1.7c1,0,1.7-0.8,1.7-1.7c0-1-0.8-1.7-1.7-1.7C32.2,53.7,31.4,54.4,31.4,55.4z M34.1,55.4   c0,0.5-0.4,0.9-0.9,0.9c-0.5,0-0.9-0.4-0.9-0.9c0-0.5,0.4-0.9,0.9-0.9C33.7,54.5,34.1,54.9,34.1,55.4z"></path><path d="M43.4,34.2c1,0,1.7-0.8,1.7-1.7c0-1-0.8-1.7-1.7-1.7c-1,0-1.7,0.8-1.7,1.7C41.6,33.4,42.4,34.2,43.4,34.2z M43.4,31.6   c0.5,0,0.9,0.4,0.9,0.9c0,0.5-0.4,0.9-0.9,0.9c-0.5,0-0.9-0.4-0.9-0.9C42.5,32,42.9,31.6,43.4,31.6z"></path><path d="M70.5,19.5c0.7-0.7,0.7-1.8,0-2.5c-0.7-0.7-1.8-0.7-2.5,0c-0.7,0.7-0.7,1.8,0,2.5C68.7,20.2,69.8,20.2,70.5,19.5z    M68.7,17.7c0.3-0.3,0.9-0.3,1.2,0c0.3,0.3,0.3,0.9,0,1.2c-0.3,0.3-0.9,0.3-1.2,0C68.3,18.6,68.3,18,68.7,17.7z"></path><path d="M51.8,61c0.7-0.7,0.7-1.8,0-2.5c-0.7-0.7-1.8-0.7-2.5,0s-0.7,1.8,0,2.5C50,61.7,51.1,61.7,51.8,61z M49.9,59.2   c0.3-0.3,0.9-0.3,1.2,0c0.3,0.3,0.3,0.9,0,1.2c-0.3,0.3-0.9,0.3-1.2,0C49.6,60.1,49.6,59.5,49.9,59.2z"></path><path d="M95,32.6c-0.2-0.8-0.5-1.6-0.8-2.4l0,0l-0.3-0.9C90.2,16.9,80.2,7,67.6,3.6l-0.8-0.2L55.9,40.8l-1.4,4.5l40.8-11.9L95,32.6   z M58.4,38.7l8-27.2c9.2,2.8,16.7,10,19.7,19.2L58.4,38.7z M87.7,30.2c-3.2-9.8-11.1-17.5-20.9-20.4L68,5.6   C79.3,8.9,88.4,17.8,92,29L87.7,30.2z"></path></g></svg>